<svg xmlns="http://www.w3.org/2000/svg" viewBox="0 0 1920 1080" xmlns:v="https://vecta.io/nano"><path d="M0,0h1920v1080H0V0z"/><path d="M788.4 491c-8.5 0-16.2-3.2-23.1-9.5S755 466.3 755 454.8c0-11.9 3.4-20.9 10.3-27s14.6-9.2 23.1-9.2 16.2 3.1 23.1 9.2 10.3 15.1 10.3 27c0 11.5-3.4 20.4-10.3 26.7-6.8 6.3-14.5 9.5-23.1 9.5h0zm0 210.5c-8.5 0-16.2-3.2-23.1-9.5S755 676.8 755 665.3c0-11.9 3.4-20.9 10.3-27s14.6-9.2 23.1-9.2 16.2 3.1 23.1 9.2 10.3 15.1 10.3 27c0 11.5-3.4 20.4-10.3 26.7-6.8 6.4-14.5 9.5-23.1 9.5h0zm362.7 90.3c-40.5-29-72.2-64.5-95-106.4-22.9-42-34.3-90.4-34.3-145.4s11.5-103.4 34.3-145.4c22.9-42 54.5-77.4 95-106.4l13.9 15.6c-40.5 31.2-70.3 66.2-89.4 105s-28.7 82.6-28.7 131.2c0 48.7 9.6 92.4 28.7 131.2s48.9 73.8 89.4 105l-13.9 15.6z" fill="#fff"/></svg>