<svg xmlns="http://www.w3.org/2000/svg" viewBox="0 0 1920 1080" xmlns:v="https://vecta.io/nano"><path d="M0,0h1920v1080H0V0z"/><path d="M788.4 491c-8.5 0-16.2-3.2-23.1-9.5S755 466.3 755 454.8c0-11.9 3.4-20.9 10.3-27s14.6-9.2 23.1-9.2 16.2 3.1 23.1 9.2 10.3 15.1 10.3 27c0 11.5-3.4 20.4-10.3 26.7-6.8 6.3-14.5 9.5-23.1 9.5zm0 210.5c-8.5 0-16.2-3.2-23.1-9.5S755 676.8 755 665.3c0-11.9 3.4-20.9 10.3-27s14.6-9.2 23.1-9.2 16.2 3.1 23.1 9.2 10.3 15.1 10.3 27c0 11.5-3.4 20.4-10.3 26.7-6.8 6.4-14.5 9.5-23.1 9.5zm247.3 90.3l-13.9-15.6c40.5-31.2 70.3-66.2 89.4-105s28.7-82.5 28.7-131.2c0-48.6-9.6-92.4-28.7-131.2s-48.9-73.8-89.4-105l13.9-15.6c40.5 29 72.1 64.4 95 106.4 22.8 42 34.3 90.4 34.3 145.4s-11.4 103.4-34.3 145.4c-22.8 41.9-54.5 77.4-95 106.4z" fill="#fff"/></svg>